<svg xmlns="http://www.w3.org/2000/svg" xmlns:xlink="http://www.w3.org/1999/xlink" width="0" height="0" style="position:absolute">
	
		<symbol id="account-edit" viewBox="0 0 24 24">
			<path fill="currentColor" d="M21.7 13.35l-1 1-2.05-2.05 1-1a.55.55 0 0 1 .77 0l1.28 1.28c.21.21.21.56 0 .77M12 18.94l6.06-6.06 2.05 2.05L14.06 21H12v-2.06M12 14c-4.42 0-8 1.79-8 4v2h6v-1.89l4-4c-.66-.08-1.33-.11-2-.11m0-10a4 4 0 0 0-4 4 4 4 0 0 0 4 4 4 4 0 0 0 4-4 4 4 0 0 0-4-4z"></path>
		</symbol>
	
		<symbol id="account-edit-outline" viewBox="0 0 24 24">
			<path fill="currentColor" d="M2 17v3h8v-1.89H3.9V17c0-.64 3.13-2.1 6.1-2.1.96.01 1.91.14 2.83.38l1.52-1.52c-1.4-.47-2.85-.73-4.35-.76-2.67 0-8 1.33-8 4m8-13C7.79 4 6 5.79 6 8s1.79 4 4 4 4-1.79 4-4-1.79-4-4-4m0 6c-1.1 0-2-.89-2-2s.9-2 2-2 2 .9 2 2-.89 2-2 2m11.7 3.35l-1 1-2.05-2 1-1a.55.55 0 0 1 .77 0l1.28 1.28c.21.21.21.56 0 .77M12 18.94l6.06-6.06 2.05 2-6 6.07H12v-2.01"></path>
		</symbol>
	
		<symbol id="chevron-down" viewBox="0 0 24 24">
			<path fill="currentColor" d="M7.41 8.58L12 13.17l4.59-4.59L18 10l-6 6-6-6 1.41-1.42z"></path>
		</symbol>
	
		<symbol id="chevron-left" viewBox="0 0 24 24">
			<path fill="currentColor" d="M15.41 16.58L10.83 12l4.58-4.59L14 6l-6 6 6 6 1.41-1.42z"></path>
		</symbol>
	
		<symbol id="chevron-right" viewBox="0 0 24 24">
			<path fill="currentColor" d="M8.59 16.58L13.17 12 8.59 7.41 10 6l6 6-6 6-1.41-1.42z"></path>
		</symbol>
	
		<symbol id="chevron-up" viewBox="0 0 24 24">
			<path fill="currentColor" d="M7.41 15.41L12 10.83l4.59 4.58L18 14l-6-6-6 6 1.41 1.41z"></path>
		</symbol>
	
		<symbol id="clipboard-text" viewBox="0 0 24 24">
			<path fill="currentColor" d="M17 9H7V7h10m0 6H7v-2h10m-3 6H7v-2h7M12 3a1 1 0 0 1 1 1 1 1 0 0 1-1 1 1 1 0 0 1-1-1 1 1 0 0 1 1-1m7 0h-4.18C14.4 1.84 13.3 1 12 1c-1.3 0-2.4.84-2.82 2H5a2 2 0 0 0-2 2v14a2 2 0 0 0 2 2h14a2 2 0 0 0 2-2V5a2 2 0 0 0-2-2z"></path>
		</symbol>
	
		<symbol id="clipboard-text-off" viewBox="0 0 24 24">
			<path fill="currentColor" d="M2.39 1.73L1.11 3 3 4.9V19a2 2 0 0 0 2 2h14.1l1.74 1.73 1.27-1.27L2.39 1.73M7 11h2.11l2 2H7v-2m7 6H7v-2h6.11l.89.89V17m3-10v2h-4.8l2 2H17v2h-.8l4.8 4.8V5a2 2 0 0 0-2-2h-4.18C14.4 1.84 13.3 1 12 1s-2.4.84-2.82 2H6.2l4 4H17m-5-4c.55 0 1 .45 1 1s-.45 1-1 1-1-.45-1-1 .45-1 1-1z"></path>
		</symbol>
	
		<symbol id="close" viewBox="0 0 24 24">
			<path fill="currentColor" d="M19 6.41L17.59 5 12 10.59 6.41 5 5 6.41 10.59 12 5 17.59 6.41 19 12 13.41 17.59 19 19 17.59 13.41 12 19 6.41z"></path>
		</symbol>
	
		<symbol id="cog" viewBox="0 0 24 24">
			<path fill="currentColor" d="M12 15.5A3.5 3.5 0 0 1 8.5 12 3.5 3.5 0 0 1 12 8.5a3.5 3.5 0 0 1 3.5 3.5 3.5 3.5 0 0 1-3.5 3.5m7.43-2.53c.04-.32.07-.64.07-.97 0-.33-.03-.66-.07-1l2.11-1.63c.19-.15.24-.42.12-.64l-2-3.46c-.12-.22-.39-.31-.61-.22l-2.49 1c-.52-.39-1.06-.73-1.69-.98l-.37-2.65A.506.506 0 0 0 14 2h-4c-.25 0-.46.18-.5.42l-.37 2.65c-.63.25-1.17.59-1.69.98l-2.49-1c-.22-.09-.49 0-.61.22l-2 3.46c-.13.22-.07.49.12.64L4.57 11c-.04.34-.07.67-.07 1 0 .33.03.65.07.97l-2.11 1.66c-.19.15-.25.42-.12.64l2 3.46c.12.22.39.3.61.22l2.49-1.01c.52.4 1.06.74 1.69.99l.37 2.65c.04.24.25.42.5.42h4c.25 0 .46-.18.5-.42l.37-2.65c.63-.26 1.17-.59 1.69-.99l2.49 1.01c.22.08.49 0 .61-.22l2-3.46c.12-.22.07-.49-.12-.64l-2.11-1.66z"></path>
		</symbol>
	
		<symbol id="content-save-minus" viewBox="0 0 24 24">
			<path fill="currentColor" d="M17 3H5a2 2 0 0 0-2 2v14a2 2 0 0 0 2 2h7.81c-.36-.62-.61-1.3-.73-2H12c-1.66 0-3-1.34-3-3s1.34-3 3-3c.68 0 1.34.23 1.87.65A6.015 6.015 0 0 1 18 12c1.05 0 2.09.28 3 .81V7l-4-4m-2 6H5V5h10v4m-1 8v2h8v-2h-8z"></path>
		</symbol>
	
		<symbol id="content-save-plus" viewBox="0 0 24 24">
			<path fill="currentColor" d="M17 3H5a2 2 0 0 0-2 2v14a2 2 0 0 0 2 2h7.81c-.36-.62-.61-1.3-.73-2H12c-1.66 0-3-1.34-3-3s1.34-3 3-3c.68 0 1.34.23 1.87.65A6.015 6.015 0 0 1 18 12c1.05 0 2.09.28 3 .81V7l-4-4m-2 6H5V5h10v4m2 5v3h-3v2h3v3h2v-3h3v-2h-3v-3h-2z"></path>
		</symbol>
	
		<symbol id="database-export" viewBox="0 0 24 24">
			<path fill="currentColor" d="M12 3C7.58 3 4 4.79 4 7s3.58 4 8 4c.5 0 1-.03 1.5-.08V9.5h2.89l-1-1L18.9 5c-1.4-1.2-3.96-2-6.9-2m6.92 4.08L17.5 8.5 20 11h-5v2h5l-2.5 2.5 1.42 1.42L23.84 12M4 9v3c0 2.21 3.58 4 8 4 1.17 0 2.26-.15 3.25-.37l1.13-1.13H13.5v-1.58c-.5.05-1 .08-1.5.08-4.42 0-8-1.79-8-4m0 5v3c0 2.21 3.58 4 8 4 2.94 0 5.5-.8 6.9-2L17 17.1c-1.39.56-3.1.9-5 .9-4.42 0-8-1.79-8-4z"></path>
		</symbol>
	
		<symbol id="database-import" viewBox="0 0 24 24">
			<path fill="currentColor" d="M12 3C8.59 3 5.69 4.07 4.54 5.57l5.25 5.25c.71.11 1.43.18 2.21.18 4.42 0 8-1.79 8-4s-3.58-4-8-4M3.92 7.08L2.5 8.5 5 11H0v2h5l-2.5 2.5 1.42 1.42L8.84 12M20 9c0 2.21-3.58 4-8 4-.66 0-1.3-.05-1.91-.13l-2.47 2.47c1.26.41 2.76.66 4.38.66 4.42 0 8-1.79 8-4m0 2c0 2.21-3.58 4-8 4-2.28 0-4.33-.5-5.79-1.25l-1.68 1.68C5.68 19.93 8.59 21 12 21c4.42 0 8-1.79 8-4"></path>
		</symbol>
	
		<symbol id="database-settings" viewBox="0 0 24 24">
			<path fill="currentColor" d="M7 22h2v2H7v-2m4 0h2v2h-2v-2m4 0h2v2h-2v-2M12 3c4.42 0 8 1.79 8 4s-3.58 4-8 4-8-1.79-8-4 3.58-4 8-4M4 9c0 2.21 3.58 4 8 4s8-1.79 8-4v3c0 2.21-3.58 4-8 4s-8-1.79-8-4V9m0 5c0 2.21 3.58 4 8 4s8-1.79 8-4v3c0 1.19-1.05 2.27-2.71 3H6.71C5.05 19.27 4 18.19 4 17v-3z"></path>
		</symbol>
	
		<symbol id="delete" viewBox="0 0 24 24">
			<path fill="currentColor" d="M19 4h-3.5l-1-1h-5l-1 1H5v2h14M6 19a2 2 0 0 0 2 2h8a2 2 0 0 0 2-2V7H6v12z"></path>
		</symbol>
	
		<symbol id="filter" viewBox="0 0 24 24">
			<path fill="currentColor" d="M14 12v7.88c.04.3-.06.62-.29.83a.996.996 0 0 1-1.41 0l-2.01-2.01a.989.989 0 0 1-.29-.83V12h-.03L4.21 4.62a1 1 0 0 1 .17-1.4c.19-.14.4-.22.62-.22h14c.22 0 .43.08.62.22a1 1 0 0 1 .17 1.4L14.03 12H14z"></path>
		</symbol>
	
		<symbol id="filter-off" viewBox="0 0 24 24">
			<path fill="currentColor" d="M2.39 1.73L1.11 3l8.39 8.37.47.63H10v5.87c-.04.29.06.6.29.83l2.01 2.01c.39.39 1.02.39 1.41 0 .23-.21.33-.53.29-.83v-3.99l6.84 6.84 1.27-1.27L14 13.35 9.41 8.76 4.15 3.5 2.39 1.73M6.21 3l8.33 8.34 5.25-6.72a1 1 0 0 0-.17-1.4c-.19-.14-.4-.22-.62-.22H6.21z"></path>
		</symbol>
	
		<symbol id="find-replace" viewBox="0 0 24 24">
			<path fill="currentColor" d="M11 6c1.38 0 2.63.56 3.54 1.46L12 10h6V4l-2.05 2.05A6.976 6.976 0 0 0 11 4c-3.53 0-6.43 2.61-6.92 6H6.1A5 5 0 0 1 11 6m5.64 9.14A6.89 6.89 0 0 0 17.92 12H15.9a5 5 0 0 1-4.9 4c-1.38 0-2.63-.56-3.54-1.46L10 12H4v6l2.05-2.05A6.976 6.976 0 0 0 11 18c1.55 0 3-.5 4.14-1.36L20 21.5l1.5-1.5-4.86-4.86z"></path>
		</symbol>
	
		<symbol id="gear" viewBox="0 0 24 24">
			<path fill="currentColor" d="M12 15.5A3.5 3.5 0 0 1 8.5 12 3.5 3.5 0 0 1 12 8.5a3.5 3.5 0 0 1 3.5 3.5 3.5 3.5 0 0 1-3.5 3.5m7.43-2.53c.04-.32.07-.64.07-.97 0-.33-.03-.66-.07-1l2.11-1.63c.19-.15.24-.42.12-.64l-2-3.46c-.12-.22-.39-.31-.61-.22l-2.49 1c-.52-.39-1.06-.73-1.69-.98l-.37-2.65A.506.506 0 0 0 14 2h-4c-.25 0-.46.18-.5.42l-.37 2.65c-.63.25-1.17.59-1.69.98l-2.49-1c-.22-.09-.49 0-.61.22l-2 3.46c-.13.22-.07.49.12.64L4.57 11c-.04.34-.07.67-.07 1 0 .33.03.65.07.97l-2.11 1.66c-.19.15-.25.42-.12.64l2 3.46c.12.22.39.3.61.22l2.49-1.01c.52.4 1.06.74 1.69.99l.37 2.65c.04.24.25.42.5.42h4c.25 0 .46-.18.5-.42l.37-2.65c.63-.26 1.17-.59 1.69-.99l2.49 1.01c.22.08.49 0 .61-.22l2-3.46c.12-.22.07-.49-.12-.64l-2.11-1.66z"></path>
		</symbol>
	
		<symbol id="home-search" viewBox="0 0 24 24">
			<path fill="currentColor" d="M19.31 18.9c.44-.69.69-1.52.69-2.4 0-2.5-2-4.5-4.5-4.5S11 14 11 16.5s2 4.5 4.5 4.5c.87 0 1.69-.25 2.38-.68L21 23.39 22.39 22l-3.08-3.1m-3.81.1a2.5 2.5 0 0 1 0-5 2.5 2.5 0 0 1 0 5M5 20v-8H2l10-9 10 9h-1.82c-1.18-1.23-2.84-2-4.68-2-3.58 0-6.5 2.92-6.5 6.5 0 1.29.38 2.5 1.03 3.5H5z"></path>
		</symbol>
	
		<symbol id="home-search-outline" viewBox="0 0 24 24">
			<path fill="currentColor" d="M19.31 18.9c.44-.69.69-1.52.69-2.4 0-2.5-2-4.5-4.5-4.5S11 14 11 16.5s2 4.5 4.5 4.5c.87 0 1.69-.25 2.38-.68L21 23.39 22.39 22l-3.08-3.1m-3.81.1a2.5 2.5 0 0 1 0-5 2.5 2.5 0 0 1 0 5M5 20v-8H2l10-9 10 9h-1.82A6.44 6.44 0 0 0 17 10.18l-5-4.49-5 4.5V18h2.18c.17.72.46 1.39.85 2H5z"></path>
		</symbol>
	
		<symbol id="information" viewBox="0 0 24 24">
			<path fill="currentColor" d="M13 9h-2V7h2m0 10h-2v-6h2m-1-9A10 10 0 0 0 2 12a10 10 0 0 0 10 10 10 10 0 0 0 10-10A10 10 0 0 0 12 2z"></path>
		</symbol>
	
		<symbol id="information-off" viewBox="0 0 24 24">
			<path fill="currentColor" d="M22.1 21.5L2.4 1.7 1.1 3l3 3C2.8 7.6 2 9.7 2 12c0 5.5 4.5 10 10 10 2.3 0 4.4-.8 6-2.1l2.8 2.8 1.3-1.2M13 17h-2v-4.1l2 2V17m-2-9.2L6.7 3.5C8.3 2.6 10.1 2 12 2c5.5 0 10 4.5 10 10 0 1.9-.6 3.7-1.5 5.3L12.2 9h.8V7h-2v.8z"></path>
		</symbol>
	
		<symbol id="information-off-outline" viewBox="0 0 24 24">
			<path fill="currentColor" d="M22.1 21.5L2.4 1.7 1.1 3l3 3C2.8 7.6 2 9.7 2 12c0 5.5 4.5 10 10 10 2.3 0 4.4-.8 6-2.1l2.8 2.8 1.3-1.2M12 20c-4.4 0-8-3.6-8-8 0-1.7.6-3.3 1.5-4.6l5.5 5.5V17h2v-2.1l3.6 3.6c-1.3.9-2.9 1.5-4.6 1.5M8.2 5L6.7 3.5C8.3 2.6 10.1 2 12 2c5.5 0 10 4.5 10 10 0 1.9-.6 3.7-1.5 5.3L19 15.8c.6-1.1 1-2.4 1-3.8 0-4.4-3.6-8-8-8-1.4 0-2.7.4-3.8 1M11 7h2v2h-2V7z"></path>
		</symbol>
	
		<symbol id="information-outline" viewBox="0 0 24 24">
			<path fill="currentColor" d="M11 9h2V7h-2m1 13c-4.41 0-8-3.59-8-8s3.59-8 8-8 8 3.59 8 8-3.59 8-8 8m0-18A10 10 0 0 0 2 12a10 10 0 0 0 10 10 10 10 0 0 0 10-10A10 10 0 0 0 12 2m-1 15h2v-6h-2v6z"></path>
		</symbol>
	
		<symbol id="login" viewBox="0 0 24 24">
			<path fill="currentColor" d="M10 17v-3H3v-4h7V7l5 5-5 5m0-15h9a2 2 0 0 1 2 2v16a2 2 0 0 1-2 2h-9a2 2 0 0 1-2-2v-2h2v2h9V4h-9v2H8V4a2 2 0 0 1 2-2z"></path>
		</symbol>
	
		<symbol id="logout" viewBox="0 0 24 24">
			<path fill="currentColor" d="M16 17v-3H9v-4h7V7l5 5-5 5M14 2a2 2 0 0 1 2 2v2h-2V4H5v16h9v-2h2v2a2 2 0 0 1-2 2H5a2 2 0 0 1-2-2V4a2 2 0 0 1 2-2h9z"></path>
		</symbol>
	
		<symbol id="map-legend" viewBox="0 0 24 24">
			<path fill="currentColor" d="M9 3L3.36 4.9c-.21.07-.36.25-.36.48V20.5a.5.5 0 0 0 .5.5l.16-.03L9 18.9l6 2.1 5.64-1.9c.21-.07.36-.25.36-.48V3.5a.5.5 0 0 0-.5-.5l-.16.03L15 5.1 9 3M8 5.45v11.7l-3 1.16V6.46l3-1.01m2 .02l4 1.4v11.66l-4-1.4V5.47m9 .23v11.84l-3 1.01V6.86l3-1.16m-11.54.6l-1.89.67v2.15l1.89-.67V6.3m0 2.75l-1.89.67v2.15l1.89-.67V9.05m0 2.75l-1.89.67v2.15l1.89-.67V11.8m0 2.75l-1.89.67v2.15l1.89-.67v-2.15z"></path>
		</symbol>
	
		<symbol id="map-marker" viewBox="0 0 24 24">
			<path fill="currentColor" d="M12 11.5A2.5 2.5 0 0 1 9.5 9 2.5 2.5 0 0 1 12 6.5 2.5 2.5 0 0 1 14.5 9a2.5 2.5 0 0 1-2.5 2.5M12 2a7 7 0 0 0-7 7c0 5.25 7 13 7 13s7-7.75 7-13a7 7 0 0 0-7-7z"></path>
		</symbol>
	
		<symbol id="map-marker-alert" viewBox="0 0 24 24">
			<path fill="currentColor" d="M12 2c3.9 0 7 3.1 7 7 0 5.2-7 13-7 13S5 14.2 5 9c0-3.9 3.1-7 7-7m-1 4v6h2V6h-2m0 8v2h2v-2h-2z"></path>
		</symbol>
	
		<symbol id="map-marker-distance" viewBox="0 0 24 24">
			<path fill="currentColor" d="M6.5 8.11c-.89 0-1.61-.72-1.61-1.61A1.61 1.61 0 0 1 6.5 4.89c.89 0 1.61.72 1.61 1.61A1.61 1.61 0 0 1 6.5 8.11M6.5 2C4 2 2 4 2 6.5c0 3.37 4.5 8.36 4.5 8.36S11 9.87 11 6.5C11 4 9 2 6.5 2m11 6.11a1.61 1.61 0 0 1-1.61-1.61 1.609 1.609 0 1 1 3.22 0 1.61 1.61 0 0 1-1.61 1.61m0-6.11C15 2 13 4 13 6.5c0 3.37 4.5 8.36 4.5 8.36S22 9.87 22 6.5C22 4 20 2 17.5 2m0 14c-1.27 0-2.4.8-2.82 2H9.32a3 3 0 0 0-3.82-1.83A3.003 3.003 0 0 0 3.66 20a3.017 3.017 0 0 0 3.84 1.83c.85-.3 1.5-.98 1.82-1.83h5.37c.55 1.56 2.27 2.38 3.81 1.83A3 3 0 0 0 20.35 18c-.43-1.2-1.57-2-2.85-2m0 4.5A1.5 1.5 0 0 1 16 19a1.5 1.5 0 0 1 1.5-1.5A1.5 1.5 0 0 1 19 19a1.5 1.5 0 0 1-1.5 1.5z"></path>
		</symbol>
	
		<symbol id="map-marker-plus" viewBox="0 0 24 24">
			<path fill="currentColor" d="M9 11.5A2.5 2.5 0 0 0 11.5 9 2.5 2.5 0 0 0 9 6.5 2.5 2.5 0 0 0 6.5 9 2.5 2.5 0 0 0 9 11.5M9 2c3.86 0 7 3.13 7 7 0 5.25-7 13-7 13S2 14.25 2 9a7 7 0 0 1 7-7m6 15h3v-3h2v3h3v2h-3v3h-2v-3h-3v-2z"></path>
		</symbol>
	
		<symbol id="map-marker-radius" viewBox="0 0 24 24">
			<path fill="currentColor" d="M12 2c3.31 0 6 2.66 6 5.95C18 12.41 12 19 12 19S6 12.41 6 7.95C6 4.66 8.69 2 12 2m0 4a2 2 0 0 0-2 2 2 2 0 0 0 2 2 2 2 0 0 0 2-2 2 2 0 0 0-2-2m8 13c0 2.21-3.58 4-8 4s-8-1.79-8-4c0-1.29 1.22-2.44 3.11-3.17l.64.91C6.67 17.19 6 17.81 6 18.5c0 1.38 2.69 2.5 6 2.5s6-1.12 6-2.5c0-.69-.67-1.31-1.75-1.76l.64-.91C18.78 16.56 20 17.71 20 19z"></path>
		</symbol>
	
		<symbol id="map-marker-remove" viewBox="0 0 24 24">
			<path fill="currentColor" d="M9 2C5.14 2 2 5.14 2 9c0 5.25 7 13 7 13s7-7.75 7-13a7 7 0 0 0-7-7m0 4.5A2.5 2.5 0 0 1 11.5 9 2.5 2.5 0 0 1 9 11.5 2.5 2.5 0 0 1 6.5 9 2.5 2.5 0 0 1 9 6.5m7.58 7.66l-1.41 1.42L17.58 18l-2.41 2.41 1.41 1.41L19 19.41l2.41 2.41 1.42-1.41L20.41 18l2.42-2.42-1.42-1.42L19 16.58"></path>
		</symbol>
	
		<symbol id="palete-outline" viewBox="0 0 24 24">
			<path fill="currentColor" d="M12 22A10 10 0 0 1 2 12 10 10 0 0 1 12 2c5.5 0 10 4 10 9a6 6 0 0 1-6 6h-1.8c-.3 0-.5.2-.5.5 0 .1.1.2.1.3.4.5.6 1.1.6 1.7.1 1.4-1 2.5-2.4 2.5m0-18a8 8 0 0 0-8 8 8 8 0 0 0 8 8c.3 0 .5-.2.5-.5 0-.2-.1-.3-.1-.4-.4-.5-.6-1-.6-1.6 0-1.4 1.1-2.5 2.5-2.5H16a4 4 0 0 0 4-4c0-3.9-3.6-7-8-7m-5.5 6c.8 0 1.5.7 1.5 1.5S7.3 13 6.5 13 5 12.3 5 11.5 5.7 10 6.5 10m3-4c.8 0 1.5.7 1.5 1.5S10.3 9 9.5 9 8 8.3 8 7.5 8.7 6 9.5 6m5 0c.8 0 1.5.7 1.5 1.5S15.3 9 14.5 9 13 8.3 13 7.5 13.7 6 14.5 6m3 4c.8 0 1.5.7 1.5 1.5s-.7 1.5-1.5 1.5-1.5-.7-1.5-1.5.7-1.5 1.5-1.5z"></path>
		</symbol>
	
		<symbol id="selection-drag" viewBox="0 0 24 24">
			<path fill="currentColor" d="M14 17h3v-3h2v3h3v2h-3v3h-2v-3h-3v-2m-2 0v2H9v-2h3m-5 0v2H3v-4h2v2h2m-4-4v-3h2v3H3m0-5V4h4v2H5v2H3m6-4h3v2H9V4m6 0h4v4h-2V6h-2V4m4 6v2h-2v-2h2z"></path>
		</symbol>
	
		<symbol id="selection-remove" viewBox="0 0 24 24">
			<path fill="currentColor" d="M20 20v-3h2v3a2 2 0 0 1-2 2h-3v-2h3M2 20v-3h2v3h3v2H4c-1.1 0-2-.9-2-2m8 0h4v2h-4v-2m4.59-12L12 10.59 9.41 8 8 9.41 10.59 12 8 14.59 9.41 16 12 13.41 14.59 16 16 14.59 13.41 12 16 9.41 14.59 8M20 10h2v4h-2v-4M2 10h2v4H2v-4m0-6a2 2 0 0 1 2-2h3v2H4v3H2V4m20 0v3h-2V4h-3V2h3c1.1 0 2 .9 2 2M10 2h4v2h-4V2z"></path>
		</symbol>
	
		<symbol id="selection-search" viewBox="0 0 24 24">
			<path fill="currentColor" d="M19.27 18.9c.43-.69.68-1.52.68-2.4 0-2.5-2-4.5-4.49-4.5s-4.5 2-4.5 4.5 2 4.5 4.5 4.5c.87 0 1.69-.25 2.38-.68l3.12 3.07L22.35 22l-3.08-3.1m-3.81.1c-1.39 0-2.5-1.12-2.5-2.5s1.11-2.5 2.5-2.5 2.49 1.12 2.49 2.5-1.11 2.5-2.49 2.5M22 14h-.55c-.33-.81-.83-1.53-1.45-2.14V10h2v4M20 4h-3V2h3a2 2 0 0 1 2 2v3h-2V4m-6 0h-4V2h4v2M4 2h3v2H4v3H2V4a2 2 0 0 1 2-2m8 20h-2v-2c.5.82 1.2 1.5 2 2m-8-2h3v2H4a2 2 0 0 1-2-2v-3h2v3m0-6H2v-4h2v4z"></path>
		</symbol>
	
		<symbol id="set-center" viewBox="0 0 24 24">
			<path fill="currentColor" d="M9 5a7 7 0 0 0-7 7 7 7 0 0 0 7 7c1.04 0 2.06-.24 3-.68.94.44 1.96.68 3 .68a7 7 0 0 0 7-7 7 7 0 0 0-7-7c-1.04 0-2.06.24-3 .68-.94-.44-1.96-.68-3-.68m0 2c.34 0 .67.03 1 .1-1.28 1.31-2 3.07-2 4.9 0 1.83.72 3.59 2 4.89-.33.07-.66.11-1 .11a5 5 0 0 1-5-5 5 5 0 0 1 5-5m6 0a5 5 0 0 1 5 5 5 5 0 0 1-5 5c-.34 0-.67-.03-1-.1 1.28-1.31 2-3.07 2-4.9 0-1.83-.72-3.59-2-4.89.33-.07.66-.11 1-.11z"></path>
		</symbol>
	
		<symbol id="shape-polygon-plus" viewBox="0 0 24 24">
			<path fill="currentColor" d="M17 15.7V13h2v4l-9 4-7-7 4-9h4v2H8.3l-2.9 6.6 5 5 6.6-2.9M22 5v2h-3v3h-2V7h-3V5h3V2h2v3h3z"></path>
		</symbol>
	
		<symbol id="shield" viewBox="0 0 24 24">
			<path fill="currentColor" d="M12 1L3 5v6c0 5.55 3.84 10.74 9 12 5.16-1.26 9-6.45 9-12V5l-9-4z"></path>
		</symbol>
	
		<symbol id="shield-alert" viewBox="0 0 24 24">
			<path fill="currentColor" d="M12 1L3 5v6c0 5.55 3.84 10.74 9 12 5.16-1.26 9-6.45 9-12V5M11 7h2v6h-2m0 2h2v2h-2"></path>
		</symbol>
	
		<symbol id="shield-alert-outline" viewBox="0 0 24 24">
			<path fill="currentColor" d="M21 11c0 5.55-3.84 10.74-9 12-5.16-1.26-9-6.45-9-12V5l9-4 9 4v6m-9 10c3.75-1 7-5.46 7-9.78V6.3l-7-3.12L5 6.3v4.92C5 15.54 8.25 20 12 21M11 7h2v6h-2V7m0 8h2v2h-2v-2z"></path>
		</symbol>
	
		<symbol id="shield-bug" viewBox="0 0 24 24">
			<path fill="currentColor" d="M11 13h2v1h-2v-1m10-8v6c0 5.5-3.8 10.7-9 12-5.2-1.3-9-6.5-9-12V5l9-4 9 4m-4 5h-2.2c-.2-.6-.6-1.1-1.1-1.5l1.2-1.2-.7-.7L12.8 8H12c-.2 0-.5 0-.7.1L9.9 6.6l-.8.8 1.2 1.2c-.5.3-.9.8-1.1 1.4H7v1h2v1H7v1h2v1H7v1h2.2c.4 1.2 1.5 2 2.8 2s2.4-.8 2.8-2H17v-1h-2v-1h2v-1h-2v-1h2v-1m-6 2h2v-1h-2v1z"></path>
		</symbol>
	
		<symbol id="shield-bug-outline" viewBox="0 0 24 24">
			<path fill="currentColor" d="M9.9 6.6l-.8.8 1.2 1.2c-.5.3-.9.8-1.1 1.4H7v1h2v1H7v1h2v1H7v1h2.2c.4 1.2 1.5 2 2.8 2s2.4-.8 2.8-2H17v-1h-2v-1h2v-1h-2v-1h2v-1h-2.2c-.2-.6-.6-1.1-1.1-1.5l1.2-1.2-.7-.7L12.8 8H12c-.2 0-.5 0-.7.1L9.9 6.6M11 11h2v1h-2v-1m0 2h2v1h-2v-1m10-2c0 5.5-3.8 10.7-9 12-5.2-1.3-9-6.5-9-12V5l9-4 9 4v6m-9 10c3.8-1 7-5.5 7-9.8V6.3l-7-3.1-7 3.1v4.9c0 4.3 3.2 8.8 7 9.8z"></path>
		</symbol>
	
		<symbol id="shield-car" viewBox="0 0 24 24">
			<path fill="currentColor" d="M14.4 6.5L16 10H8l1.4-3.5h5M9 11c-.6 0-1 .4-1 1s.4 1 1 1 1-.4 1-1-.4-1-1-1m6 0c-.6 0-1 .4-1 1s.4 1 1 1 1-.4 1-1-.4-1-1-1m6-6v6c0 5.5-3.8 10.7-9 12-5.2-1.3-9-6.5-9-12V5l9-4 9 4m-3 6l-2.2-5c-.2-.6-.8-1-1.4-1h-5c-.6 0-1.2.4-1.4 1l-2 5v4c0 .5.4 1 1 1h1c.6 0 1-.5 1-1v-1h6v1c0 .5.4 1 1 1h1c.5 0 1-.5 1-1v-4z"></path>
		</symbol>
	
		<symbol id="shield-car-outline" viewBox="0 0 24 24">
			<path fill="currentColor" d="M12 1L3 5v6c0 5.5 3.8 10.7 9 12 5.2-1.3 9-6.5 9-12V5l-9-4zm7 10.2c0 4.3-3.2 8.8-7 9.8-3.8-1-7-5.5-7-9.8V6.3l7-3.1 7 3.1v4.9zM8 5.8l-2 5v4c0 .5.5 1 1 1h1c.5 0 1-.5 1-1v-1h6v1c0 .5.5 1 1 1h1c.5 0 1-.5 1-1v-4l-2.2-5c-.2-.6-.8-1-1.4-1h-5c-.6 0-1.2.4-1.4 1zm1 7c-.5 0-1-.5-1-1s.5-1 1-1 1 .5 1 1-.5 1-1 1zm6 0c-.5 0-1-.5-1-1s.5-1 1-1 1 .5 1 1-.5 1-1 1zm1-3H8l1.4-3.5h5L16 9.8z"></path>
		</symbol>
	
		<symbol id="shield-cross" viewBox="0 0 24 24">
			<path fill="currentColor" d="M12 1L3 5v6c0 5.5 3.8 10.7 9 12 5.2-1.3 9-6.5 9-12V5l-9-4m4 9h-3v8h-2v-8H8V8h3V5h2v3h3v2z"></path>
		</symbol>
	
		<symbol id="shield-cross-outline" viewBox="0 0 24 24">
			<path fill="currentColor" d="M21 11c0 5.5-3.8 10.7-9 12-5.2-1.3-9-6.5-9-12V5l9-4 9 4v6m-9 10c3.8-1 7-5.5 7-9.8V6.3l-7-3.1-7 3.1v4.9c0 4.3 3.3 8.8 7 9.8m4-12h-3V6h-2v3H8v2h3v8h2v-8h3V9z"></path>
		</symbol>
	
		<symbol id="shield-crown" viewBox="0 0 24 24">
			<path fill="currentColor" d="M12 1l9 4v6c0 5.55-3.84 10.74-9 12-5.16-1.26-9-6.45-9-12V5l9-4m4 13H8v1.5c0 .27.19.46.47.5h6.96c.31 0 .52-.16.57-.41V14m1-6l-2.67 2.67L12 8.34l-2.33 2.33L7 8l1 5h8l1-5z"></path>
		</symbol>
	
		<symbol id="shield-crown-outline" viewBox="0 0 24 24">
			<path fill="currentColor" d="M12 1l9 4v6c0 5.55-3.84 10.74-9 12-5.16-1.26-9-6.45-9-12V5l9-4m0 2.18L5 6.3v4.92C5 15.54 8.25 20 12 21c3.75-1 7-5.46 7-9.78V6.3l-7-3.12M16 14v1.59c-.04.22-.22.37-.47.41H8.47c-.25-.04-.43-.19-.47-.41V14h8m1-6l-1 5H8L7 8l2.67 2.67L12 8.34l2.33 2.33L17 8z"></path>
		</symbol>
	
		<symbol id="shield-home" viewBox="0 0 24 24">
			<path fill="currentColor" d="M11 13h2v3h3v-5h2l-6-5-6 5h2v5h3v-3m1-12l9 4v6c0 5.55-3.84 10.74-9 12-5.16-1.26-9-6.45-9-12V5l9-4z"></path>
		</symbol>
	
		<symbol id="shield-home-outline" viewBox="0 0 24 24">
			<path fill="currentColor" d="M21 11c0 5.55-3.84 10.74-9 12-5.16-1.26-9-6.45-9-12V5l9-4 9 4v6m-9 10c3.75-1 7-5.46 7-9.78V6.3l-7-3.12L5 6.3v4.92C5 15.54 8.25 20 12 21m-1-7h2v3h3v-5h2l-6-5-6 5h2v5h3v-3"></path>
		</symbol>
	
		<symbol id="shield-key" viewBox="0 0 24 24">
			<path fill="currentColor" d="M12 8a1 1 0 0 1 1 1 1 1 0 0 1-1 1 1 1 0 0 1-1-1 1 1 0 0 1 1-1m9 3c0 5.55-3.84 10.74-9 12-5.16-1.26-9-6.45-9-12V5l9-4 9 4v6m-9-5a3 3 0 0 0-3 3c0 1.31.83 2.42 2 2.83V18h2v-2h2v-2h-2v-2.17c1.17-.41 2-1.52 2-2.83a3 3 0 0 0-3-3z"></path>
		</symbol>
	
		<symbol id="shield-key-outline" viewBox="0 0 24 24">
			<path fill="currentColor" d="M21 11c0 5.55-3.84 10.74-9 12-5.16-1.26-9-6.45-9-12V5l9-4 9 4v6m-9 10c3.75-1 7-5.46 7-9.78V6.3l-7-3.12L5 6.3v4.92C5 15.54 8.25 20 12 21m0-15a3 3 0 0 1 3 3c0 1.31-.83 2.42-2 2.83V14h2v2h-2v2h-2v-6.17A2.99 2.99 0 0 1 9 9a3 3 0 0 1 3-3m0 2a1 1 0 0 0-1 1 1 1 0 0 0 1 1 1 1 0 0 0 1-1 1 1 0 0 0-1-1z"></path>
		</symbol>
	
		<symbol id="shield-link" viewBox="0 0 24 24">
			<path fill="currentColor" d="M12 1L3 5v6c0 5.55 3.84 10.74 9 12 5.16-1.26 9-6.45 9-12V5l-9-4m2.28 13.08l-2.02 2.02c-.6.6-1.39.9-2.18.9-.79 0-1.58-.3-2.18-.9a3.09 3.09 0 0 1 0-4.36l1.25-1.24-.01.56c0 .44.07.89.22 1.31l.05.13-.37.37c-.28.28-.44.66-.44 1.05 0 .4.16.77.44 1.05.56.56 1.53.56 2.09 0l2.01-2.01c.29-.29.44-.66.44-1.05 0-.41-.15-.77-.43-1.05a.83.83 0 0 1-.25-.57c0-.21.1-.41.25-.56.3-.31.85-.3 1.13 0 .58.58.9 1.35.9 2.17 0 .83-.32 1.6-.9 2.18m2.82-2.82l-1.25 1.24.01-.56c0-.44-.07-.88-.22-1.3l-.04-.14.36-.37c.29-.28.44-.63.44-1.05 0-.39-.15-.76-.43-1.04-.57-.57-1.54-.57-2.1 0l-2.01 2.01c-.28.28-.44.65-.44 1.05s.15.76.44 1.04c.14.15.24.36.24.57 0 .22-.1.42-.25.57-.15.16-.35.22-.56.22-.2 0-.41-.07-.57-.22a3.054 3.054 0 0 1 0-4.36l2.02-2.02a3.09 3.09 0 0 1 4.36 0c.58.6.9 1.36.9 2.18 0 .82-.32 1.6-.9 2.18z"></path>
		</symbol>
	
		<symbol id="shield-link-outline" viewBox="0 0 24 24">
			<path fill="currentColor" d="M21 11c0 5.55-3.84 10.74-9 12-5.16-1.26-9-6.45-9-12V5l9-4 9 4v6m-9 10c3.75-1 7-5.46 7-9.78V6.3l-7-3.12L5 6.3v4.92C5 15.54 8.25 20 12 21m2.28-11.27c.58.58.9 1.35.9 2.17 0 .83-.32 1.6-.9 2.18l-2.02 2.02c-.6.6-1.39.9-2.18.9-.79 0-1.58-.3-2.18-.9a3.09 3.09 0 0 1 0-4.36l1.25-1.24-.01.56c0 .44.07.89.22 1.3l.04.14-.36.37c-.29.28-.44.63-.44 1.05 0 .39.15.76.43 1.04.57.57 1.54.57 2.1.01l2.01-2.02c.29-.28.44-.65.44-1.04 0-.41-.15-.77-.44-1.05a.866.866 0 0 1-.24-.57c0-.21.1-.42.24-.57.31-.3.86-.3 1.14.01M18 9.08c0 .82-.32 1.6-.9 2.18l-1.25 1.24.01-.56c0-.44-.07-.88-.22-1.3l-.05-.14.37-.37c.29-.28.44-.63.44-1.05 0-.39-.15-.76-.44-1.04-.56-.57-1.53-.57-2.09-.01l-2.01 2.02c-.29.28-.44.65-.44 1.05s.15.76.43 1.04c.15.15.25.36.25.57 0 .22-.1.42-.25.57-.15.15-.35.22-.56.22-.2 0-.41-.07-.57-.22a3.054 3.054 0 0 1 0-4.36l2.02-2.02a3.09 3.09 0 0 1 4.36 0c.58.6.9 1.36.9 2.18z"></path>
		</symbol>
	
		<symbol id="shield-lock" viewBox="0 0 24 24">
			<path fill="currentColor" d="M12 1L3 5v6c0 5.55 3.84 10.74 9 12 5.16-1.26 9-6.45 9-12V5l-9-4m0 6c1.4 0 2.8 1.1 2.8 2.5V11c.6 0 1.2.6 1.2 1.3v3.5c0 .6-.6 1.2-1.3 1.2H9.2c-.6 0-1.2-.6-1.2-1.3v-3.5c0-.6.6-1.2 1.2-1.2V9.5C9.2 8.1 10.6 7 12 7m0 1.2c-.8 0-1.5.5-1.5 1.3V11h3V9.5c0-.8-.7-1.3-1.5-1.3z"></path>
		</symbol>
	
		<symbol id="shield-lock-outline" viewBox="0 0 24 24">
			<path fill="currentColor" d="M21 11c0 5.55-3.84 10.74-9 12-5.16-1.26-9-6.45-9-12V5l9-4 9 4v6m-9 10c3.75-1 7-5.46 7-9.78V6.3l-7-3.12L5 6.3v4.92C5 15.54 8.25 20 12 21m2.8-10V9.5C14.8 8.1 13.4 7 12 7S9.2 8.1 9.2 9.5V11c-.6 0-1.2.6-1.2 1.2v3.5c0 .7.6 1.3 1.2 1.3h5.5c.7 0 1.3-.6 1.3-1.2v-3.5c0-.7-.6-1.3-1.2-1.3m-1.3 0h-3V9.5c0-.8.7-1.3 1.5-1.3s1.5.5 1.5 1.3V11z"></path>
		</symbol>
	
		<symbol id="shield-moon" viewBox="0 0 24 24">
			<path fill="currentColor" d="M12 1L3 5v6c0 5.55 3.84 10.74 9 12 5.16-1.26 9-6.45 9-12V5l-9-4m3.97 13.41c-1.84 2.17-5.21 2.09-6.97-.07-2.18-2.72-.64-6.72 2.7-7.34.34-.05.63.28.51.61-.46 1.23-.39 2.64.32 3.86a4.51 4.51 0 0 0 3.18 2.2c.34.05.49.47.26.74z"></path>
		</symbol>
	
		<symbol id="shield-moon-outline" viewBox="0 0 24 24">
			<path fill="currentColor" d="M21 11c0 5.55-3.84 10.74-9 12-5.16-1.26-9-6.45-9-12V5l9-4 9 4v6m-9 10c3.75-1 7-5.46 7-9.78V6.3l-7-3.12L5 6.3v4.92C5 15.54 8.25 20 12 21m-3-6.67c1.76 2.17 5.13 2.24 6.97.07.23-.27.08-.68-.26-.74a4.491 4.491 0 0 1-3.18-2.2 4.503 4.503 0 0 1-.32-3.86.453.453 0 0 0-.51-.6c-3.34.62-4.89 4.61-2.7 7.33"></path>
		</symbol>
	
		<symbol id="shield-off" viewBox="0 0 24 24">
			<path fill="currentColor" d="M1 4.27L2.28 3 20.5 21.22l-1.27 1.28L17 20.25c-1.43 1.32-3.13 2.29-5 2.75-5.16-1.26-9-6.45-9-12V6.27l-2-2M12 1l9 4v6c0 2.28-.65 4.5-1.77 6.41L5.65 3.82 12 1z"></path>
		</symbol>
	
		<symbol id="shield-off-outline" viewBox="0 0 24 24">
			<path fill="currentColor" d="M1 4.27l2 2V11c0 5.55 3.84 10.74 9 12 1.87-.46 3.57-1.44 4.97-2.76l2.26 2.26 1.27-1.28L2.28 3 1 4.27M12 21c-3.75-1-7-5.46-7-9.78V8.27l10.59 10.59C14.53 19.89 13.3 20.65 12 21m9-16v6c0 2.28-.65 4.5-1.77 6.4l-1.46-1.45c.77-1.45 1.23-3.11 1.23-4.73V6.3l-7-3.12-4.84 2.16-1.51-1.52L12 1l9 4z"></path>
		</symbol>
	
		<symbol id="shield-outline" viewBox="0 0 24 24">
			<path fill="currentColor" d="M21 11c0 5.55-3.84 10.74-9 12-5.16-1.26-9-6.45-9-12V5l9-4 9 4v6m-9 10c3.75-1 7-5.46 7-9.78V6.3l-7-3.12L5 6.3v4.92C5 15.54 8.25 20 12 21z"></path>
		</symbol>
	
		<symbol id="shield-star" viewBox="0 0 24 24">
			<path fill="currentColor" d="M12 1L3 5v6c0 5.55 3.84 10.74 9 12 5.16-1.26 9-6.45 9-12V5l-9-4m3.08 15L12 14.15 8.93 16l.81-3.5-2.71-2.34 3.58-.31L12 6.55l1.39 3.29 3.58.31-2.71 2.35.82 3.5z"></path>
		</symbol>
	
		<symbol id="shield-star-outline" viewBox="0 0 24 24">
			<path fill="currentColor" d="M21 11c0 5.55-3.84 10.74-9 12-5.16-1.26-9-6.45-9-12V5l9-4 9 4v6m-9 10c3.75-1 7-5.46 7-9.78V6.3l-7-3.12L5 6.3v4.92C5 15.54 8.25 20 12 21m3.05-5l-3.08-1.85L8.9 16l.81-3.5L7 10.16l3.58-.31 1.39-3.3 1.4 3.29 3.58.31-2.72 2.35.82 3.5"></path>
		</symbol>
	
		<symbol id="shield-sun" viewBox="0 0 24 24">
			<path fill="currentColor" d="M12 1L3 5v6c0 5.55 3.84 10.74 9 12 5.16-1.26 9-6.45 9-12V5l-9-4m0 7.89c1.6 0 2.89 1.29 2.89 2.89S13.6 14.67 12 14.67s-2.89-1.3-2.89-2.89 1.3-2.89 2.89-2.89M12 6l1.38 2c-.42-.18-.88-.27-1.38-.27s-.95.09-1.38.27L12 6M7 8.89l2.4-.2c-.34.31-.66.65-.9 1.07-.25.42-.4.86-.5 1.32L7 8.89m0 5.78l1.03-2.17c.08.43.24.88.47 1.3.25.43.56.79.9 1.08L7 14.67m10-5.78l-1 2.19c-.1-.46-.26-.9-.5-1.32-.24-.42-.55-.76-.9-1.08l2.4.21m0 5.78l-2.4.2c.34-.29.65-.65.9-1.07.24-.42.39-.87.47-1.3L17 14.67m-5 2.88l-1.39-1.98c.43.15.89.25 1.39.25.5 0 .95-.1 1.37-.25L12 17.55z"></path>
		</symbol>
	
		<symbol id="shield-sun-outline" viewBox="0 0 24 24">
			<path fill="currentColor" d="M21 11c0 5.55-3.84 10.74-9 12-5.16-1.26-9-6.45-9-12V5l9-4 9 4v6m-9 10c3.75-1 7-5.46 7-9.78V6.3l-7-3.12L5 6.3v4.92C5 15.54 8.25 20 12 21m0-12.11c1.6 0 2.89 1.29 2.89 2.89S13.6 14.67 12 14.67s-2.89-1.3-2.89-2.89 1.3-2.89 2.89-2.89M12 6l1.38 2c-.42-.18-.88-.27-1.38-.27s-.95.09-1.38.27L12 6M7 8.89l2.4-.2c-.34.31-.66.65-.9 1.07-.25.42-.4.86-.5 1.32L7 8.89m0 5.78l1.03-2.17c.08.43.24.88.47 1.3.25.43.56.79.9 1.08L7 14.67m10-5.78l-1 2.19c-.1-.46-.26-.9-.5-1.32-.24-.42-.55-.76-.9-1.08l2.4.21m0 5.78l-2.4.2c.34-.29.65-.65.9-1.07.24-.42.39-.87.47-1.3L17 14.67m-5 2.88l-1.39-1.98c.43.15.89.25 1.39.25.5 0 .95-.1 1.37-.25L12 17.55z"></path>
		</symbol>
	
		<symbol id="shield-sword" viewBox="0 0 24 24">
			<path fill="currentColor" d="M12 1L3 5v6c0 5.5 3.8 10.7 9 12 5.2-1.3 9-6.5 9-12V5l-9-4m3 14h-2v3h-2v-3H9v-2h2l-1-5.9 2-1.6 2 1.6-1 5.9h2v2z"></path>
		</symbol>
	
		<symbol id="shield-sword-outline" viewBox="0 0 24 24">
			<path fill="currentColor" d="M12 1l9 4v6c0 5.5-3.8 10.7-9 12-5.2-1.3-9-6.5-9-12V5l9-4m0 2.2L5 6.3v4.9c0 4.3 3.2 8.8 7 9.8 3.8-1 7-5.5 7-9.8V6.3l-7-3.1m0 2.3l2 1.6-1 5.9h2v2h-2v3h-2v-3H9v-2h2l-1-5.9 2-1.6z"></path>
		</symbol>
	
		<symbol id="shield-unlock" viewBox="0 0 24 24">
			<path fill="currentColor" d="M12 1L3 5v6c0 5.5 3.8 10.7 9 12 5.2-1.3 9-6.5 9-12V5l-9-4m4 14.8c0 .6-.6 1.2-1.3 1.2H9.2c-.6 0-1.2-.6-1.2-1.3v-3.5c0-.6.6-1.2 1.2-1.2V8.5C9.2 7.1 10.6 6 12 6s2.8 1.1 2.8 2.5V9h-1.3v-.5c0-.8-.7-1.3-1.5-1.3s-1.5.5-1.5 1.3V11h4.3c.6 0 1.2.6 1.2 1.3v3.5z"></path>
		</symbol>
	
		<symbol id="shield-unlock-outline" viewBox="0 0 24 24">
			<path fill="currentColor" d="M21 11c0 5.5-3.8 10.7-9 12-5.2-1.3-9-6.5-9-12V5l9-4 9 4v6m-9 10c3.8-1 7-5.5 7-9.8V6.3l-7-3.1-7 3.1v4.9c0 4.3 3.2 8.8 7 9.8m2.8-10h-4.3V8.5c0-.8.7-1.3 1.5-1.3s1.5.5 1.5 1.3V9h1.3v-.5C14.8 7.1 13.4 6 12 6S9.2 7.1 9.2 8.5V11c-.6 0-1.2.6-1.2 1.2v3.5c0 .7.6 1.3 1.2 1.3h5.5c.7 0 1.3-.6 1.3-1.2v-3.5c0-.7-.6-1.3-1.2-1.3z"></path>
		</symbol>
	
		<symbol id="target" viewBox="0 0 24 24">
			<path fill="currentColor" d="M11 2v2.07A8.002 8.002 0 0 0 4.07 11H2v2h2.07A8.002 8.002 0 0 0 11 19.93V22h2v-2.07A8.002 8.002 0 0 0 19.93 13H22v-2h-2.07A8.002 8.002 0 0 0 13 4.07V2m-2 4.08V8h2V6.09c2.5.41 4.5 2.41 4.92 4.91H16v2h1.91c-.41 2.5-2.41 4.5-4.91 4.92V16h-2v1.91C8.5 17.5 6.5 15.5 6.08 13H8v-2H6.09C6.5 8.5 8.5 6.5 11 6.08M12 11a1 1 0 0 0-1 1 1 1 0 0 0 1 1 1 1 0 0 0 1-1 1 1 0 0 0-1-1z"></path>
		</symbol>
	
		<symbol id="text-box-check" viewBox="0 0 24 24">
			<path fill="currentColor" d="M17 21l-2.75-3 1.16-1.16L17 18.43l3.59-3.59 1.16 1.41M12.8 21H5a2 2 0 0 1-2-2V5c0-1.11.89-2 2-2h14a2 2 0 0 1 2 2v7.8c-.88-.51-1.91-.8-3-.8l-1 .08V11H7v2h7.69A5.983 5.983 0 0 0 12 18c0 1.09.29 2.12.8 3m-.8-6H7v2h5m5-10H7v2h10"></path>
		</symbol>
	
		<symbol id="text-box-edit" viewBox="0 0 24 24">
			<path fill="currentColor" d="M10 19.11L12.11 17H7v-2h7v.12L16.12 13H7v-2h10v1.12l1.24-1.23c.48-.48 1.11-.75 1.8-.75.33 0 .66.07.96.19V5a2 2 0 0 0-2-2H5c-1.11 0-2 .89-2 2v14a2 2 0 0 0 2 2h5v-1.89M7 7h10v2H7V7m14.7 7.35l-1 1-2.05-2.05 1-1a.55.55 0 0 1 .77 0l1.28 1.28c.21.21.21.56 0 .77M12 19.94l6.06-6.06 2.05 2.05L14.06 22H12v-2.06z"></path>
		</symbol>
	
		<symbol id="text-box-minus" viewBox="0 0 24 24">
			<path fill="currentColor" d="M22 17v2h-8v-2h8m-10 0v-2H7v2h5m5-6H7v2h7.69A5.983 5.983 0 0 0 12 18c0 1.09.29 2.12.8 3H5a2 2 0 0 1-2-2V5c0-1.11.89-2 2-2h14a2 2 0 0 1 2 2v7.8c-.88-.51-1.91-.8-3-.8l-1 .08V11m0-2V7H7v2h10z"></path>
		</symbol>
	
		<symbol id="text-box-plus" viewBox="0 0 24 24">
			<path fill="currentColor" d="M17 14h2v3h3v2h-3v3h-2v-3h-3v-2h3v-3m-5 3v-2H7v2h5m5-6H7v2h7.69A5.983 5.983 0 0 0 12 18c0 1.09.29 2.12.8 3H5a2 2 0 0 1-2-2V5c0-1.11.89-2 2-2h14a2 2 0 0 1 2 2v7.8c-.88-.51-1.91-.8-3-.8l-1 .08V11m0-2V7H7v2h10z"></path>
		</symbol>
	
		<symbol id="text-box-remove" viewBox="0 0 24 24">
			<path fill="currentColor" d="M14.46 15.88l1.42-1.42L18 16.59l2.12-2.13 1.42 1.42L19.41 18l2.13 2.12-1.42 1.42L18 19.41l-2.12 2.13-1.42-1.42L16.59 18l-2.13-2.12M12 17v-2H7v2h5m5-6H7v2h7.69A5.983 5.983 0 0 0 12 18c0 1.09.29 2.12.8 3H5a2 2 0 0 1-2-2V5c0-1.11.89-2 2-2h14a2 2 0 0 1 2 2v7.8c-.88-.51-1.91-.8-3-.8l-1 .08V11m0-2V7H7v2h10z"></path>
		</symbol>
	
		<symbol id="view-dashboard-edit" viewBox="0 0 24 24">
			<path fill="currentColor" d="M21 13.1c-.1 0-.3.1-.4.2l-1 1 2.1 2.1 1-1c.2-.2.2-.6 0-.8l-1.3-1.3c-.1-.1-.2-.2-.4-.2m-1.9 1.8l-6.1 6V23h2.1l6.1-6.1-2.1-2M21 9h-8V3h8v6m-8 9.06V11h8v.1c-.76 0-1.43.4-1.81.79L13 18.06M11 13H3V3h8v10m0 8H3v-6h8v6z"></path>
		</symbol>
	
		<symbol id="view-dashboard-edit-outline" viewBox="0 0 24 24">
			<path fill="currentColor" d="M21 13.1c-.1 0-.3.1-.4.2l-1 1 2.1 2.1 1-1c.2-.2.2-.6 0-.8l-1.3-1.3c-.1-.1-.2-.2-.4-.2m-1.9 1.8l-6.1 6V23h2.1l6.1-6.1-2.1-2M21 3h-8v6h8V3m-2 4h-4V5h4v2m-6 11.06V11h8v.1c-.76 0-1.43.4-1.81.79L18.07 13H15v3.07l-2 1.99M11 3H3v10h8V3m-2 8H5V5h4v6m2 9.06V15H3v6h8v-.94M9 19H5v-2h4v2z"></path>
		</symbol>
	
</svg>
